<?xml version="1.0" encoding="UTF-8"?>
<svg version="1.1" xmlns="http://www.w3.org/2000/svg" width="1500" height="1500">
<path d="M0 0 C1.19302734 0.84111328 1.19302734 0.84111328 2.41015625 1.69921875 C18.25079442 13.37771088 27.99752434 31.72796576 31 51 C31.5575317 57.32366208 31.38601984 63.66096225 31.25 70 C31.22986531 71.66143633 31.21162709 73.32289676 31.1953125 74.984375 C31.15195724 78.99019707 31.08333444 82.9948185 31 87 C31.86882812 86.72285156 32.73765625 86.44570312 33.6328125 86.16015625 C34.78523438 85.79792969 35.93765625 85.43570313 37.125 85.0625 C38.26195312 84.70285156 39.39890625 84.34320313 40.5703125 83.97265625 C59.26454548 78.67098881 79.20548098 82.76523344 96.11328125 91.6328125 C114.05733405 102.5464514 125.59585424 118.80269503 131.8359375 138.66015625 C134.21227267 148.42379423 134.1503403 158.5967542 134.15821838 168.57876587 C134.16279309 169.9320828 134.16779442 171.28539835 134.17318195 172.63871229 C134.18666908 176.33302883 134.19415383 180.02733625 134.20060861 183.72167087 C134.20865434 187.71472656 134.22233758 191.70776353 134.23532104 195.70080566 C134.25702492 202.61092157 134.2751915 209.52103943 134.29092598 216.43117142 C134.31368029 226.42194757 134.34181527 236.41270293 134.37124526 246.40346138 C134.41885317 262.61450542 134.46213568 278.82555798 134.50268555 295.03662109 C134.54207514 310.78011742 134.58350962 326.52360619 134.62768555 342.26708984 C134.63040982 343.23822317 134.63313409 344.20935649 134.63594092 345.2099181 C134.64962097 350.08201908 134.66334113 354.95411994 134.67708123 359.82622075 C134.79093911 400.21746472 134.89777199 440.60872503 135 481 C135.54369232 479.90998688 136.08738464 478.81997375 136.64755249 477.69692993 C137.37096755 476.24797362 138.09440846 474.79903021 138.81787109 473.35009766 C139.17501694 472.63390762 139.53216278 471.91771759 139.90013123 471.17982483 C154.49208236 441.96561628 171.61415831 413.69668154 193.7109375 389.51171875 C195.25260229 387.8200968 196.77845444 386.11394349 198.2890625 384.39453125 C202.8961876 379.16204037 207.57763043 374.38284794 213 370 C213.92167969 369.25234375 214.84335937 368.5046875 215.79296875 367.734375 C236.09056705 351.57045756 257.76489501 337.61733518 284.78125 340.2734375 C296.71825185 341.93833513 306.93881375 346.51691168 317 353 C317.86109375 353.51433594 318.7221875 354.02867187 319.609375 354.55859375 C333.21627201 362.76275224 341.66004673 378.37982157 345.45703125 393.4296875 C351.85612621 423.72180609 337.97627039 453.30838962 325 480 C324.55253418 480.93054199 324.10506836 481.86108398 323.64404297 482.81982422 C318.72657718 493.01974504 313.51206876 502.99205528 307.875 512.8125 C302.7680946 521.71435233 297.90587337 530.72531509 293.18438721 539.83602905 C292.45028065 541.2520228 291.71383982 542.66680942 290.97479248 544.08023071 C283.68612918 558.03974278 278.10088984 572.1810015 273.39324951 587.1953125 C216.12809333 769.1284421 216.12809333 769.1284421 128.25 847.1875 C107.38399876 862.99993027 91.98646045 880.4595146 87.46484375 907.16015625 C86.8890611 911.91641123 86.64761054 916.6531797 86.4375 921.4375 C86.39431641 922.35982422 86.35113281 923.28214844 86.30664062 924.23242188 C86.20145069 926.48816163 86.09930893 928.74399499 86 931 C86.89203125 931.11214844 87.7840625 931.22429688 88.703125 931.33984375 C102.47715841 934.09791442 115.71992883 948.09396093 123.19921875 959.29296875 C129.43627814 969.43227582 134.10895989 980.95873335 134.13422108 993.01260853 C134.13867892 994.00343113 134.14313676 994.99425373 134.14772969 996.01510125 C134.14745315 997.63677706 134.14745315 997.63677706 134.14717102 999.29121399 C134.15084771 1000.4454869 134.1545244 1001.59975982 134.1583125 1002.7890107 C134.16741973 1005.98892088 134.1720447 1009.18880092 134.17470181 1012.38872182 C134.17861311 1015.84145168 134.18819065 1019.29416679 134.19691467 1022.74688721 C134.21665256 1031.08157855 134.22674048 1039.41627107 134.23564246 1047.75097993 C134.24002849 1051.67744941 134.24539437 1055.60391755 134.25063133 1059.53038597 C134.26763857 1072.58425905 134.2821335 1085.63813129 134.28938007 1098.69201374 C134.2912899 1102.07747206 134.29321025 1105.46293038 134.29516602 1108.84838867 C134.29564976 1109.68980666 134.2961335 1110.53122465 134.2966319 1111.39814015 C134.30493521 1125.03359729 134.33027945 1138.66896679 134.36274669 1152.30438564 C134.39581789 1166.30769799 134.41382876 1180.31096579 134.41702431 1194.31431741 C134.41918902 1202.1751135 134.42793218 1210.03578167 134.45348549 1217.89653969 C134.47519308 1224.58960436 134.48324255 1231.28251 134.47351871 1237.97560588 C134.46897453 1241.38933026 134.47086662 1244.80272651 134.49028015 1248.21640587 C134.50793068 1251.92049327 134.50092541 1255.62374757 134.48774719 1259.32783508 C134.50420106 1260.93947264 134.50420106 1260.93947264 134.52098733 1262.58366853 C134.45614535 1270.12999067 133.0610159 1275.22385593 128.2109375 1281.20703125 C122.64427642 1286.0748987 117.13002318 1288.80432747 109.64453125 1289.08984375 C101.02354731 1288.51115464 95.22485649 1284.79099283 89.54296875 1278.48828125 C84.06004216 1269.64619457 84.58909162 1260.27356568 84.65942383 1250.28100586 C84.66034396 1248.5678055 84.65994044 1246.854604 84.65832806 1245.14140415 C84.65765364 1240.57337117 84.6749805 1236.00557623 84.69615936 1231.43759918 C84.71330497 1227.14365427 84.71405201 1222.84976585 84.71618652 1218.55578613 C84.73189854 1206.01632617 84.77378225 1193.47691004 84.8125 1180.9375 C84.874375 1152.908125 84.93625 1124.87875 85 1096 C-10.04 1096 -105.08 1096 -203 1096 C-202.84169989 1152.15510614 -202.84169989 1152.15510614 -202.63964844 1208.31005859 C-202.62158203 1219.18286133 -202.62158203 1219.18286133 -202.6182251 1224.27651978 C-202.61450573 1227.82618252 -202.59954501 1231.3756048 -202.57769775 1234.92520142 C-202.55015663 1239.4603372 -202.54205456 1243.99512592 -202.5477109 1248.53033757 C-202.54652902 1250.19011545 -202.53865891 1251.8499061 -202.52313948 1253.50961185 C-202.42767189 1264.2213974 -202.78351427 1273.59963464 -210.3125 1281.9375 C-215.93620898 1287.01197201 -222.48652932 1289.17187678 -230 1289 C-237.31419487 1287.93240013 -243.42171421 1284.89779174 -248 1279 C-251.96856793 1272.14611725 -252.57180316 1266.10638595 -252.50120544 1258.29937744 C-252.50673984 1257.14929821 -252.51227424 1255.99921897 -252.51797634 1254.81428885 C-252.53154774 1250.97525407 -252.5166316 1247.13687334 -252.50170898 1243.29785156 C-252.50328608 1240.53931589 -252.51084258 1237.78080368 -252.51808167 1235.02227783 C-252.53198861 1228.31540199 -252.524476 1221.6087149 -252.50940608 1214.90184811 C-252.49250615 1207.08124057 -252.49576146 1199.26067955 -252.49950016 1191.44005939 C-252.5053745 1177.47725419 -252.49122609 1163.51453923 -252.46655273 1149.55175781 C-252.44265167 1136.02437961 -252.43554186 1122.49712208 -252.44604492 1108.96972656 C-252.45747563 1094.22126916 -252.45935623 1079.47286753 -252.44494683 1064.72441077 C-252.44342109 1063.14903498 -252.44190073 1061.57365919 -252.44038582 1059.99828339 C-252.439628 1059.22328844 -252.43887019 1058.44829349 -252.43808941 1057.64981385 C-252.43336175 1052.2080853 -252.43518735 1046.76638178 -252.43945122 1041.32465363 C-252.44439781 1034.68306188 -252.43830581 1028.04158384 -252.41855692 1021.40001801 C-252.40874002 1018.01605463 -252.40514664 1014.63240656 -252.41144943 1011.24841309 C-252.41744217 1007.56827897 -252.40482001 1003.88864624 -252.38768005 1000.20855713 C-252.3936901 999.15531573 -252.39970014 998.10207432 -252.40589231 997.01691651 C-252.31682934 986.43638372 -250.2843566 976.20597307 -245.3125 966.8125 C-244.79248413 965.80425171 -244.79248413 965.80425171 -244.26196289 964.77563477 C-241.15995078 958.94737877 -237.45873037 953.87560354 -233 949 C-232.44828125 948.36835937 -231.8965625 947.73671875 -231.328125 947.0859375 C-224.69599698 939.91692293 -215.85327361 934.95235429 -207 931 C-206.01 931 -205.02 931 -204 931 C-204.0448342 925.61409816 -204.11534942 920.22929428 -204.20751953 914.84399414 C-204.23537363 913.02019087 -204.25676063 911.19627486 -204.27099609 909.37231445 C-204.39523722 894.33499732 -205.3477599 879.10275222 -212.75 865.625 C-213.26759888 864.64225098 -213.26759888 864.64225098 -213.7956543 863.63964844 C-220.2336758 851.71944336 -229.22684151 842.14825429 -238.46875 832.39453125 C-259.44514995 809.88576442 -276.74191597 782.93756753 -289.95068359 755.19335938 C-290.6710261 753.68764577 -291.40105689 752.18654042 -292.13916016 750.68945312 C-319.38226799 695.33342066 -325.35914651 635.31748981 -325.26144934 574.46150184 C-325.25682102 570.17136036 -325.26395809 565.88123331 -325.26940918 561.59109497 C-325.27819291 553.24255495 -325.27643247 544.89405135 -325.2705839 536.54551004 C-325.26602869 529.7572365 -325.26547095 522.96897303 -325.26763153 516.18069839 C-325.267938 515.20702253 -325.26824446 514.23334666 -325.26856022 513.23016546 C-325.26919978 511.25112405 -325.2698482 509.27208265 -325.2705054 507.29304124 C-325.27617489 488.84525798 -325.26970151 470.39749477 -325.25890467 451.94971479 C-325.24994668 436.15445485 -325.25154621 420.35922428 -325.26074219 404.56396484 C-325.27146094 386.14492916 -325.27565253 367.72591086 -325.26951766 349.30687249 C-325.26888065 347.34145427 -325.26825191 345.37603605 -325.26763153 343.41061783 C-325.2671687 341.96064319 -325.2671687 341.96064319 -325.26669653 340.48137613 C-325.2649763 333.69979777 -325.26786957 326.91823054 -325.27259064 320.1366539 C-325.27821624 311.87591486 -325.27664674 303.61521379 -325.26602915 295.35447906 C-325.26079893 291.14791667 -325.25867049 286.94141747 -325.26532745 282.73485565 C-325.27134277 278.8753613 -325.26792124 275.01598798 -325.25737235 271.15650441 C-325.25412554 269.12022043 -325.26055822 267.08392786 -325.26748681 265.04765308 C-325.16902157 241.58745718 -319.78553978 220.94076108 -304 203 C-303.32195312 202.2265625 -302.64390625 201.453125 -301.9453125 200.65625 C-290.19297629 188.08598562 -272.96726405 179.39210084 -255.65234375 178.6640625 C-253.74749749 178.64046496 -251.84249066 178.62758655 -249.9375 178.625 C-249.01517578 178.60050781 -248.09285156 178.57601562 -247.14257812 178.55078125 C-238.36908468 178.51489784 -230.38490081 180.65406199 -222 183 C-222.00888245 182.2816246 -222.01776489 181.56324921 -222.0269165 180.82310486 C-222.10774941 173.98486376 -222.16830832 167.14669592 -222.20724869 160.30809689 C-222.22794294 156.79397296 -222.25591769 153.28025043 -222.30175781 149.76635742 C-222.68409432 119.63458695 -222.68409432 119.63458695 -218 108 C-217.52167725 106.77639771 -217.52167725 106.77639771 -217.03369141 105.52807617 C-216.168813 103.50009327 -215.22445755 101.56958815 -214.1875 99.625 C-213.84130615 98.95782959 -213.4951123 98.29065918 -213.13842773 97.60327148 C-210.2926601 92.25973294 -207.08503289 87.48569709 -203 83 C-201.98486328 81.86498047 -201.98486328 81.86498047 -200.94921875 80.70703125 C-186.59896224 65.49015179 -166.73179622 58.18884231 -146.0625 57.5625 C-137.43012194 57.71528545 -127.8066543 59.09667285 -120 63 C-120.0825 61.700625 -120.165 60.40125 -120.25 59.0625 C-120.14705722 40.81589234 -112.16100069 23.32984942 -100 10 C-99.22462891 9.08734375 -99.22462891 9.08734375 -98.43359375 8.15625 C-74.3128427 -18.44307446 -28.05481306 -21.79683964 0 0 Z M-267 234 C-275.48915649 243.5061948 -276.44171305 251.4905318 -276.38095093 263.9412384 C-276.38440932 265.47967809 -276.3891751 267.0181153 -276.39513266 268.55654734 C-276.40765009 272.77759529 -276.40146861 276.99843961 -276.39217401 281.21948826 C-276.38538581 285.77547462 -276.39586436 290.33142599 -276.40411377 294.8874054 C-276.41746182 303.81538887 -276.41456681 312.74329671 -276.40587585 321.67128316 C-276.39909588 328.93825298 -276.39818397 336.20520162 -276.4014473 343.47217369 C-276.401907 344.50725429 -276.40236669 345.54233489 -276.40284032 346.60878157 C-276.40379955 348.71189383 -276.40477219 350.81500608 -276.4057581 352.91811832 C-276.41431721 372.651832 -276.40447388 392.38550392 -276.388357 412.11921074 C-276.37499104 429.00568303 -276.37725008 445.89209333 -276.39111328 462.77856445 C-276.40722511 482.41305345 -276.41345357 502.04750565 -276.40427649 521.68200034 C-276.40332094 523.78310914 -276.40237782 525.88421795 -276.4014473 527.98532677 C-276.40098447 529.0189088 -276.40052164 530.05249083 -276.40004479 531.11739353 C-276.39746882 538.35537421 -276.40179643 545.59333134 -276.40888596 552.83130836 C-276.41736527 561.68270112 -276.41488903 570.53401425 -276.39904372 579.38539807 C-276.39124063 583.89088002 -276.38792995 588.39622999 -276.39799118 592.90171051 C-276.52703304 656.05683097 -262.32027228 716.386647 -226 769 C-225.35417969 769.94093506 -225.35417969 769.94093506 -224.6953125 770.90087891 C-215.87214508 783.69112955 -206.0424458 795.53240288 -195.33984375 806.80078125 C-161.93334533 842.10457019 -157.26226742 878.03383812 -156 926 C-92.64 926 -29.28 926 36 926 C36.66 917.42 37.32 908.84 38 900 C43.18372574 871.48950844 55.07441427 848.11035029 75 827 C75.62261719 826.32453125 76.24523437 825.6490625 76.88671875 824.953125 C83.1407487 818.39753805 90.43031793 813.16172662 97.66308594 807.75732422 C105.88631228 801.59601929 113.558335 795.08678791 121 788 C121.70640625 787.34644531 122.4128125 786.69289063 123.140625 786.01953125 C129.49702676 779.96027836 134.72117987 772.98893985 140 766 C140.42039551 765.45102051 140.84079102 764.90204102 141.27392578 764.33642578 C149.26338673 753.85402466 155.66167113 742.53424684 162 731 C162.42780762 730.23091309 162.85561523 729.46182617 163.29638672 728.66943359 C190.30524548 679.95492317 207.55471104 625.58281571 225.26132202 573.00845337 C227.90330582 565.16681112 230.54849268 557.32634714 233.26953125 549.51171875 C233.49565094 548.85311356 233.72177063 548.19450836 233.95474243 547.51594543 C236.02414309 541.62293028 238.67710239 536.07659292 241.6015625 530.5625 C243.45068621 527.05219107 245.27369628 523.52950819 247.0859375 520 C256.38601961 501.93463849 256.38601961 501.93463849 261.4375 493.125 C268.01756278 481.6308112 274.01000677 469.80937366 280 458 C280.42764648 457.15695312 280.85529297 456.31390625 281.29589844 455.4453125 C286.89039249 444.30451124 291.0964553 432.83030039 295 421 C295.33 420.01 295.66 419.02 296 418 C296.66176816 410.55983507 297.17103542 403.77341139 292.48828125 397.61328125 C288.56270946 393.35800264 284.85249725 390.14754848 279 389 C264.48822069 388.53276468 250.75589469 401.28426318 240.625 410.625 C238.73530459 412.40218434 236.86694097 414.19866164 235 416 C234.29488281 416.65355469 233.58976562 417.30710937 232.86328125 417.98046875 C206.00783108 443.52855421 187.80947094 481.01619588 172.26904297 513.99487305 C168.61995111 521.73798636 164.87737719 529.43083944 161.06881714 537.09655762 C160.40432334 538.43598366 159.74210581 539.77654167 159.08230591 541.11828613 C158.1559034 543.00116282 157.22158674 544.87990705 156.28515625 546.7578125 C155.74769775 547.8420752 155.21023926 548.92633789 154.65649414 550.04345703 C150.96037899 556.64035526 146.96604365 560.21784456 140 563 C135.36495863 564.21381886 130.7043234 565.11773854 125.99081421 565.9671936 C91.62393875 572.22163076 59.84704343 584.98276565 34 609 C33.50129395 609.46019531 33.00258789 609.92039062 32.48876953 610.39453125 C5.85297488 635.23194003 -10.48455242 671.24568496 -12.5 707.5625 C-12.9426641 715.13118819 -14.3704552 721.51860112 -20 727 C-25.90025525 731.2680125 -31.67712309 733.39209105 -39 733 C-45.62520681 731.76387303 -52.1997207 728.78761182 -56.28515625 723.26171875 C-65.32649315 708.12801147 -58.65924302 685.45755146 -54.6796875 669.5625 C-41.29862826 619.08959245 -10.62807272 574.31665549 34.77490234 547.67822266 C48.03242657 540.11916183 61.70292365 534.27978157 76 529 C78.64 528.01 81.28 527.02 84 526 C84 481.45 84 436.9 84 391 C66.51 391 49.02 391 31 391 C29.515 397.93 29.515 397.93 28 405 C24.57966206 411.84067588 21.28970269 415.05013514 14.25 418.25 C6.8044757 419.96819792 -0.20257076 419.63310873 -7 416 C-12.45258722 412.32998937 -14.63748852 408.9906541 -17 403 C-17.66 399.04 -18.32 395.08 -19 391 C-36.49 391 -53.98 391 -72 391 C-72.66 395.62 -73.32 400.24 -74 405 C-76.9726668 411.16553114 -82.05130932 415.79868157 -88.375 418.375 C-96.73945607 419.8171476 -103.49503838 419.32684012 -111 415 C-118.71593362 408.59707189 -119.92136648 400.70770164 -121 391 C-138.49 391 -155.98 391 -174 391 C-174.01417969 395.07085937 -174.02835938 399.14171875 -174.04296875 403.3359375 C-174.06825984 406.60685474 -174.09849455 409.87764428 -174.13204193 413.14848328 C-174.16597193 416.58752088 -174.19143782 420.02611855 -174.19555664 423.46533203 C-174.20070198 427.42259666 -174.2459738 431.37894055 -174.29296875 435.3359375 C-174.2890361 436.55300385 -174.28510345 437.77007019 -174.28105164 439.02401733 C-174.4247077 447.51073618 -175.90122613 454.51952691 -181.77140808 460.93637085 C-187.80632781 466.60014984 -193.94347471 467.46666404 -202.02734375 467.31640625 C-207.70159697 466.712445 -211.36755513 464.29853569 -215.75 460.8125 C-223.25703188 451.42871016 -222.55609724 441.35073627 -222.48242188 429.88525391 C-222.48460988 427.9412051 -222.48860987 425.99715762 -222.49427795 424.05311584 C-222.50282097 419.87887334 -222.49909009 415.7048884 -222.4858551 411.53065872 C-222.46546285 404.92346078 -222.47552017 398.31652059 -222.4901123 391.70932007 C-222.51910644 376.48971768 -222.50842617 361.2701918 -222.49741364 346.05057526 C-222.48772873 332.10249694 -222.48650734 318.15455381 -222.51729441 304.2064985 C-222.53063452 297.64538269 -222.52475539 291.084656 -222.50392914 284.52356362 C-222.49491479 280.43346585 -222.50244282 276.34351659 -222.51434135 272.25343132 C-222.51646391 270.36489669 -222.51179936 268.47633959 -222.4996357 266.58784294 C-222.28587069 249.61962842 -222.28587069 249.61962842 -230.25 235.0625 C-241.52011105 225.10564342 -255.23819989 224.53942165 -267 234 Z M-196.3125 981.1875 C-196.92738281 981.71730469 -197.54226563 982.24710938 -198.17578125 982.79296875 C-212.79482223 1000.47981705 -204 1025.89233321 -204 1047 C-108.96 1047 -13.92 1047 84 1047 C88.45365919 1011.87146739 88.45365919 1011.87146739 77.6875 982.25 C69.87231563 975.70705495 62.98880665 974.85042702 53.12017822 974.85955811 C52.11770231 974.85658698 51.1152264 974.85361586 50.08237243 974.8505547 C46.71929453 974.84187499 43.35625227 974.84036007 39.99316406 974.83886719 C37.58341394 974.83423852 35.17366455 974.82921379 32.76391602 974.82382202 C26.21423074 974.81070118 19.66455287 974.80421688 13.11485767 974.79981136 C9.0229994 974.79704598 4.93114348 974.79280809 0.8392868 974.78830719 C-10.49634019 974.77611712 -21.83196531 974.76581715 -33.16759872 974.7624321 C-33.89269143 974.76221253 -34.61778413 974.76199297 -35.36484934 974.76176675 C-36.09164691 974.76154847 -36.81844449 974.76133019 -37.56726623 974.7611053 C-39.03996134 974.76066184 -40.51265645 974.76021527 -41.98535156 974.75976562 C-42.71585449 974.7595442 -43.44635743 974.75932277 -44.19899681 974.75909463 C-56.03283726 974.75514752 -67.86661609 974.73769501 -79.70043275 974.7144061 C-91.85844037 974.69067287 -104.0164171 974.67822936 -116.17444825 974.67706418 C-122.99735258 974.67614855 -129.82017661 974.6704245 -136.64305878 974.65224457 C-143.06165141 974.63520176 -149.48013241 974.63360569 -155.89874268 974.64238358 C-158.25252948 974.64315424 -160.60632445 974.63880739 -162.96009064 974.62892532 C-166.17765612 974.61621051 -169.39468169 974.62208051 -172.61224365 974.63250732 C-174.00356432 974.62042272 -174.00356432 974.62042272 -175.42299247 974.60809398 C-183.01245966 974.66546517 -190.4999944 975.94753243 -196.3125 981.1875 Z " fill="#000000" transform="translate(764,113)"/>
<path d="M0 0 C6.65409184 4.80883948 11.31380909 10.64191497 13.32421875 18.6796875 C13.74954874 23.24155099 13.71623801 27.78076125 13.6849823 32.35961914 C13.68629186 33.7483335 13.68892106 35.13704714 13.6927498 36.52575684 C13.69943712 40.32730506 13.68748645 44.12859827 13.67241561 47.93011403 C13.65943408 52.03498762 13.66384621 56.13984737 13.66612244 60.24473572 C13.66769383 67.35191237 13.6582986 74.45900627 13.64140892 81.56616211 C13.61700537 91.84184393 13.60921226 102.11748582 13.60544495 112.39319348 C13.59888259 129.06569984 13.57892728 145.73816211 13.55053711 162.41064453 C13.52299096 178.60432719 13.50176009 194.79799786 13.48901367 210.99169922 C13.4882255 211.99024095 13.48743733 212.98878268 13.48662528 214.01758325 C13.4827101 219.02708197 13.47891899 224.03658077 13.47518957 229.04607964 C13.44410038 270.59064768 13.39044355 312.13516185 13.32421875 353.6796875 C-4.49578125 353.6796875 -22.31578125 353.6796875 -40.67578125 353.6796875 C-40.78883166 310.91812489 -40.87833931 268.15659815 -40.9311079 225.39491571 C-40.93736137 220.34563366 -40.94383299 215.29635191 -40.95043945 210.24707031 C-40.95175101 209.24185624 -40.95306256 208.23664216 -40.95441385 207.20096706 C-40.97616586 190.92819542 -41.01558628 174.65551218 -41.06154523 158.38279296 C-41.10831554 141.68342694 -41.13607787 124.98410718 -41.14622372 108.28467834 C-41.15308168 97.98157284 -41.17473588 87.67871718 -41.21536358 77.3756886 C-41.24180901 70.30892523 -41.24977816 63.24229088 -41.24328814 56.17548163 C-41.24008804 52.09923509 -41.24496683 48.02342489 -41.27180862 43.94725609 C-41.29623106 40.21111461 -41.29731146 36.47570081 -41.28027572 32.73952506 C-41.27717957 30.75658565 -41.29866409 28.77365417 -41.32118779 26.79084027 C-41.24826086 18.04557362 -39.73698353 11.14723469 -33.73184091 4.54124558 C-24.40016578 -4.44333538 -11.45563005 -6.53026254 0 0 Z " fill="#D0A153" transform="translate(732.67578125,150.3203125)"/>
<path d="M0 0 C0.6688623 -0.00636475 1.33772461 -0.01272949 2.02685547 -0.01928711 C9.40193712 0.168862 14.9559506 2.98308081 20.3046875 7.828125 C27.14926691 15.11538865 28.17144635 23.58150217 28.12223816 33.12336731 C28.12465257 34.19359546 28.12706699 35.26382361 28.12955457 36.36648291 C28.13519022 39.95247321 28.12652941 43.53828528 28.11791992 47.12426758 C28.1189928 49.69492644 28.12093158 52.26558506 28.12367249 54.83624268 C28.12870851 61.09227734 28.12308103 67.34825905 28.11382218 73.60428713 C28.10343281 80.88595154 28.10350849 88.16760454 28.10399476 95.44927498 C28.10449513 108.43583968 28.09533906 121.42237974 28.08081055 134.40893555 C28.06670907 147.02026824 28.05964041 159.63157924 28.06030273 172.24291992 C28.06036267 173.40911607 28.06036267 173.40911607 28.06042381 174.59887175 C28.06048435 175.76302466 28.06048435 175.76302466 28.0605461 176.95069581 C28.06123509 191.30034136 28.05535267 205.64997767 28.04639288 219.99962023 C28.04337178 225.08025567 28.04231278 230.16088941 28.04186058 235.24152565 C28.04110909 242.06965325 28.03478552 248.89775474 28.02469444 255.72587585 C28.0217612 258.23943631 28.02054573 260.75299941 28.02112198 263.26656151 C28.02160884 266.6815828 28.01599505 270.09653868 28.00871277 273.5115509 C28.01026137 274.52008285 28.01180997 275.52861479 28.0134055 276.56770831 C28.00856883 277.92889396 28.00856883 277.92889396 28.00363445 279.31757832 C28.00293003 280.10680221 28.0022256 280.8960261 28.00149983 281.70916587 C27.875 283.5 27.875 283.5 26.875 284.5 C25.21761557 284.59346915 23.55625356 284.61744977 21.89624023 284.61352539 C20.83521591 284.61344986 19.77419159 284.61337433 18.68101501 284.61329651 C16.94979149 284.60555458 16.94979149 284.60555458 15.18359375 284.59765625 C14.00861832 284.5962413 12.83364288 284.59482635 11.62306213 284.59336853 C7.85284936 284.58774992 4.08269496 284.57519426 0.3125 284.5625 C-2.23632727 284.5574874 -4.78515547 284.55292408 -7.33398438 284.54882812 C-13.59767633 284.53777444 -19.86133399 284.52101821 -26.125 284.5 C-26.1936801 251.00414684 -26.24653588 217.50831122 -26.27819599 184.01240328 C-26.28194807 180.05709686 -26.28583104 176.10179058 -26.28979492 172.14648438 C-26.29058185 171.35906056 -26.29136878 170.57163674 -26.29217956 169.7603516 C-26.30523027 157.01374438 -26.32888227 144.26717778 -26.35645839 131.52059466 C-26.3845219 118.43953501 -26.40117826 105.35849663 -26.40726548 92.27740812 C-26.41137997 84.2069338 -26.42437104 76.13657432 -26.4487494 68.06613535 C-26.46649533 61.8756826 -26.46836322 55.68531724 -26.46432304 49.49484253 C-26.46514866 46.95680535 -26.47111978 44.41876384 -26.48261642 41.88075256 C-26.49754529 38.41517417 -26.49395169 34.95008686 -26.48576355 31.48449707 C-26.49450207 30.48058945 -26.5032406 29.47668183 -26.51224393 28.44235277 C-26.45906038 20.11247173 -24.7474074 13.30732919 -18.890625 7.109375 C-13.03157508 1.76882507 -7.95490063 0.06490438 0 0 Z " fill="#516C88" transform="translate(616.125,219.5)"/>
<path d="M0 0 C6.59235979 4.4980361 11.46642006 10.39926018 14 18 C14.08902616 19.37016104 14.12376408 20.74426239 14.12304783 22.11731243 C14.12503888 22.95930052 14.12702993 23.8012886 14.12908131 24.66879147 C14.12471205 26.05642507 14.12471205 26.05642507 14.12025452 27.47209167 C14.12110894 28.45470752 14.12196337 29.43732336 14.12284368 30.44971544 C14.1244967 33.75710397 14.11897998 37.06444228 14.11352539 40.37182617 C14.11324345 42.73677062 14.11340138 45.10171515 14.1139679 47.46665955 C14.11422571 53.23146099 14.10988106 58.99624586 14.10353024 64.76104351 C14.09638804 71.46802617 14.09488562 78.17500645 14.09374207 84.88199238 C14.09155266 96.84312538 14.08489558 108.80425156 14.07543945 120.76538086 C14.06626246 132.3854977 14.05918303 144.00561269 14.05493164 155.62573242 C14.05466892 156.34182319 14.05440619 157.05791396 14.05413551 157.79570445 C14.05283049 161.38806963 14.05156677 164.98043483 14.05032361 168.57280004 C14.03995446 198.3818725 14.02151801 228.19093288 14 258 C-3.82 258 -21.64 258 -40 258 C-40.11029599 227.59563728 -40.20259023 197.19141212 -40.25532665 166.78690843 C-40.26157993 163.1946899 -40.26805157 159.6024718 -40.2746582 156.01025391 C-40.27662553 154.93756724 -40.27662553 154.93756724 -40.2786326 153.84321015 C-40.30036957 142.27481727 -40.33978159 130.70654905 -40.38576398 119.13823004 C-40.43257635 107.2617592 -40.46030547 95.3853535 -40.47044247 83.50879419 C-40.47667826 76.84053588 -40.49225846 70.17250454 -40.52865028 63.50432205 C-40.56264021 57.2252508 -40.57304661 50.94657776 -40.56553841 44.66742325 C-40.56691158 42.36564468 -40.5768257 40.06385251 -40.59602737 37.76215363 C-40.62101159 34.61224199 -40.61488478 31.46382152 -40.60127258 28.31387329 C-40.61583679 27.40917411 -40.630401 26.50447494 -40.64540654 25.57236063 C-40.54725169 17.13326561 -37.3608031 10.38556982 -31.75 4.125 C-22.7159264 -4.12859208 -10.92086156 -5.55899451 0 0 Z " fill="#DC7774" transform="translate(834,246)"/>
<path d="M0 0 C3.83870274 1.56391593 6.30972363 3.8734626 9 7 C10.49757801 11.444939 9.56288653 15.36397265 8.5625 19.8125 C8.41490234 20.50537109 8.26730469 21.19824219 8.11523438 21.91210938 C7.75224388 23.60996815 7.37731777 25.30526763 7 27 C8.65 27.33 10.3 27.66 12 28 C12.58265625 26.9171875 13.1653125 25.834375 13.765625 24.71875 C20.17919196 13.56886784 20.17919196 13.56886784 25.30078125 11.96875 C33.04292624 12.04292624 33.04292624 12.04292624 35 14 C36.04474362 18.58718555 36.25275221 22.44545959 35 27 C31.92605623 30.40823379 27.98153671 32.57538079 24.0625 34.87890625 C23.051875 35.57886719 22.04125 36.27882813 21 37 C21 38.32 21 39.64 21 41 C22.26457031 40.74863281 23.52914062 40.49726562 24.83203125 40.23828125 C26.49202073 39.92879169 28.15218656 39.62024689 29.8125 39.3125 C30.64587891 39.14427734 31.47925781 38.97605469 32.33789062 38.80273438 C33.14033203 38.65771484 33.94277344 38.51269531 34.76953125 38.36328125 C35.87711792 38.15119019 35.87711792 38.15119019 37.00708008 37.93481445 C39 38 39 38 40.7644043 39.35229492 C42 41 42 41 42 43 C42.639375 43.2475 43.27875 43.495 43.9375 43.75 C46 45 46 45 47.0625 46.8125 C47 49 47 49 44.75 51.5625 C43.8425 52.366875 42.935 53.17125 42 54 C41.54004639 54.55276611 41.08009277 55.10553223 40.60620117 55.67504883 C39 57 39 57 36.9152832 57.06518555 C36.13499756 56.9237915 35.35471191 56.78239746 34.55078125 56.63671875 C33.70322266 56.49169922 32.85566406 56.34667969 31.98242188 56.19726562 C31.10134766 56.02904297 30.22027344 55.86082031 29.3125 55.6875 C28.41982422 55.53087891 27.52714844 55.37425781 26.60742188 55.21289062 C24.40178011 54.82365973 22.20016945 54.4188839 20 54 C20.03389292 56.36461009 20.03389292 56.36461009 21 59 C23.75475792 61.20327399 23.75475792 61.20327399 27.0625 63.1875 C32.68725123 66.98061604 32.68725123 66.98061604 33.828125 70.69921875 C33.80623033 74.44868023 33.18396935 77.44809196 32 81 C27.44139858 81.81304324 23.51732891 82.14356207 19 81 C16.21360734 77.77891269 14.50846275 74.65060629 12.68359375 70.84375 C12.12800781 69.9053125 11.57242188 68.966875 11 68 C9.68 68 8.36 68 7 68 C7.22816406 68.88042969 7.45632813 69.76085938 7.69140625 70.66796875 C7.97886719 71.82941406 8.26632812 72.99085937 8.5625 74.1875 C8.85253906 75.33605469 9.14257812 76.48460937 9.44140625 77.66796875 C9.98952151 80.93749542 10.02311142 82.87624493 9 86 C6.30972363 89.1265374 3.83870274 91.43608407 0 93 C-1.66666667 91.33333333 -3.33333333 89.66666667 -5 88 C-5.55558594 87.56042969 -6.11117187 87.12085938 -6.68359375 86.66796875 C-8 85 -8 85 -8.109375 82.4765625 C-7.99078125 81.53554687 -7.8721875 80.59453125 -7.75 79.625 C-7.64171875 78.68914062 -7.5334375 77.75328125 -7.421875 76.7890625 C-7.02593199 74.17143928 -6.54626394 71.59004456 -6 69 C-7.65 68.67 -9.3 68.34 -11 68 C-11.50789062 68.9384375 -12.01578125 69.876875 -12.5390625 70.84375 C-13.23319521 72.06317233 -13.92857328 73.28188635 -14.625 74.5 C-14.95628906 75.12003906 -15.28757812 75.74007813 -15.62890625 76.37890625 C-16.6640625 78.15625 -16.6640625 78.15625 -19 81 C-22.1484375 81.40625 -22.1484375 81.40625 -25 81 C-25.66 81 -26.32 81 -27 81 C-29 81 -31 81 -33 81 C-33 78.66666667 -33 76.33333333 -33 74 C-33.12375 72.89527344 -33.2475 71.79054688 -33.375 70.65234375 C-33 67 -33 67 -30.375 64.56640625 C-29.26125 63.90511719 -28.1475 63.24382812 -27 62.5625 C-25.329375 61.54349609 -25.329375 61.54349609 -23.625 60.50390625 C-22.75875 60.00761719 -21.8925 59.51132813 -21 59 C-21.495 56.525 -21.495 56.525 -22 54 C-23.12019531 54.25136719 -24.24039063 54.50273438 -25.39453125 54.76171875 C-26.86699746 55.07121802 -28.33966463 55.37976226 -29.8125 55.6875 C-30.55048828 55.85572266 -31.28847656 56.02394531 -32.04882812 56.19726562 C-37.51669128 57.31063143 -37.51669128 57.31063143 -40.01171875 55.70703125 C-41 54 -41 54 -41 52 C-41.639375 51.7525 -42.27875 51.505 -42.9375 51.25 C-45 50 -45 50 -46.0625 48.1875 C-46 46 -46 46 -43.75 43.4375 C-42.8425 42.633125 -41.935 41.82875 -41 41 C-40.61714844 40.42765625 -40.23429688 39.8553125 -39.83984375 39.265625 C-38 38 -38 38 -34.20703125 38.36328125 C-32.73853864 38.66229558 -31.27364613 38.97943525 -29.8125 39.3125 C-29.06291016 39.46912109 -28.31332031 39.62574219 -27.54101562 39.78710938 C-25.69071096 40.17602692 -23.84485928 40.58602122 -22 41 C-21.34 38.69 -20.68 36.38 -20 34 C-20.680625 33.773125 -21.36125 33.54625 -22.0625 33.3125 C-23.031875 32.879375 -24.00125 32.44625 -25 32 C-25.62390625 31.73960938 -26.2478125 31.47921875 -26.890625 31.2109375 C-29.17640233 29.99371461 -30.46864642 29.1110185 -32 27 C-32.60741445 22.60956574 -32.40618576 18.40356944 -32 14 C-27.14769765 13.26397661 -22.81766666 12.94208396 -18 14 C-15.21528366 16.93489365 -13.55475183 19.76603791 -11.74609375 23.375 C-11.16988281 24.24125 -10.59367188 25.1075 -10 26 C-7.3535741 26.50177794 -7.3535741 26.50177794 -5 26 C-5.2165625 25.04738281 -5.433125 24.09476563 -5.65625 23.11328125 C-5.9346875 21.85902344 -6.213125 20.60476563 -6.5 19.3125 C-6.7784375 18.07113281 -7.056875 16.82976562 -7.34375 15.55078125 C-7.89354126 12.57601782 -8.13795705 10.00631398 -8 7 C-7.13375 6.6596875 -7.13375 6.6596875 -6.25 6.3125 C-3.4336339 4.66961977 -1.91922886 2.60466773 0 0 Z M-3 11 C-3 14.96 -3 18.92 -3 23 C-2.67 23 -2.34 23 -2 23 C-2 19.04 -2 15.08 -2 11 C-2.33 11 -2.66 11 -3 11 Z M3 14 C3 17.96 3 21.92 3 26 C3.33 26 3.66 26 4 26 C4 22.04 4 18.08 4 14 C3.67 14 3.34 14 3 14 Z M27 14 C28 16 28 16 28 16 Z M22 20 C23 22 23 22 23 22 Z M-20 21 C-19.34 22.32 -18.68 23.64 -18 25 C-18 24.01 -18 23.02 -18 22 C-18.66 21.67 -19.32 21.34 -20 21 Z M-30 22 C-29.01 23.32 -28.02 24.64 -27 26 C-26.34 25.67 -25.68 25.34 -25 25 C-26.37485532 23.45833358 -26.37485532 23.45833358 -28 22 C-28.66 22 -29.32 22 -30 22 Z M-2 23 C-1 25 -1 25 -1 25 Z M17 26 C17 29 17 29 17 29 Z M21 30 C20.67 30.66 20.34 31.32 20 32 C20.99 31.67 21.98 31.34 23 31 C22.34 30.67 21.68 30.34 21 30 Z M32 43 C32 43.33 32 43.66 32 44 C34.97 44 37.94 44 41 44 C41 43.67 41 43.34 41 43 C38.03 43 35.06 43 32 43 Z M-40 44 C-40 44.33 -40 44.66 -40 45 C-34.39 45.33 -28.78 45.66 -23 46 C-23.33 45.34 -23.66 44.68 -24 44 C-29.28 44 -34.56 44 -40 44 Z M21 44 C21 44.33 21 44.66 21 45 C24.63 45 28.26 45 32 45 C32 44.67 32 44.34 32 44 C28.37 44 24.74 44 21 44 Z M21 49 C25.37296734 51.18648367 28.5208216 51.23362071 33.25 51.125 C33.99507812 51.11597656 34.74015625 51.10695313 35.5078125 51.09765625 C37.33868059 51.07418358 39.16938238 51.03831525 41 51 C41 50.67 41 50.34 41 50 C34.4 49.67 27.8 49.34 21 49 Z M-29 50 C-29 50.33 -29 50.66 -29 51 C-27.02 51 -25.04 51 -23 51 C-23 50.67 -23 50.34 -23 50 C-24.98 50 -26.96 50 -29 50 Z M-40 51 C-40 51.33 -40 51.66 -40 52 C-37.03 52 -34.06 52 -31 52 C-31 51.67 -31 51.34 -31 51 C-33.97 51 -36.94 51 -40 51 Z M19 62 C19.93590504 63.1055189 20.87379858 64.20935453 21.8125 65.3125 C22.33457031 65.92738281 22.85664062 66.54226563 23.39453125 67.17578125 C24.87172469 68.85424679 26.40039131 70.43882034 28 72 C28.66 71.67 29.32 71.34 30 71 C28.54782324 69.49403892 27.08807139 67.99537896 25.625 66.5 C24.81289063 65.6646875 24.00078125 64.829375 23.1640625 63.96875 C21.2410341 61.77568714 21.2410341 61.77568714 19 62 Z M13 64 C13.66 64.66 14.32 65.32 15 66 C15 65.34 15 64.68 15 64 C14.34 64 13.68 64 13 64 Z M-16 67 C-16 70 -16 70 -16 70 Z M-26 68 C-26.99 69.485 -26.99 69.485 -28 71 C-26.68 70.34 -25.36 69.68 -24 69 C-24.66 68.67 -25.32 68.34 -26 68 Z M17 68 C17.33 68.99 17.66 69.98 18 71 C18 70.01 18 69.02 18 68 C17.67 68 17.34 68 17 68 Z M3 69 C3.33 73.62 3.66 78.24 4 83 C4.33 83 4.66 83 5 83 C5 78.71 5 74.42 5 70 C4.34 69.67 3.68 69.34 3 69 Z M-2 70 C-2 72.64 -2 75.28 -2 78 C-1.67 78 -1.34 78 -1 78 C-1 75.36 -1 72.72 -1 70 C-1.33 70 -1.66 70 -2 70 Z M-21 73 C-21 76 -21 76 -21 76 Z M21 73 C21.33 73.99 21.66 74.98 22 76 C22 75.01 22 74.02 22 73 C21.67 73 21.34 73 21 73 Z M25 78 C26 80 26 80 26 80 Z " fill="#D1A254" transform="translate(796,1218)"/>
</svg>
